<svg width="32px" height="32px" viewBox="0 0 32 32" id="catface_Light" data-name="catface/Light" xmlns="http://www.w3.org/2000/svg">
  <path id="Path" d="M0,0H4V2H2V6H4v4H2v2H0Z" fill="#1a1a1a"/>
  <path id="Path-2" data-name="Path" d="M0,0H22V2H20V4H18V6H4V4H2V2H0Z" transform="translate(4)" fill="#fff"/>
  <path id="Path-3" data-name="Path" d="M0,0H4V12H2V10H0V6H2V2H0Z" transform="translate(26)" fill="#1a1a1a"/>
  <path id="Path-4" data-name="Path" d="M30,0h2V32H0V24H2v2H6v2h6v2h6V28h6V26h4V24h2V16H28V12h2Z" fill="#fff"/>
  <path id="Path-5" data-name="Path" d="M0,0H2V2H4V4H6V6H4V8H6V6h4V8h2v2h2V8h2V6h4V8h2V6H20V4h2V2h2V0h2V4H24V8h2v2H24v2H22V10H16v4H14v2H12V14H10V10H4v2H2V10H0V8H2V4H0Z" transform="translate(2 2)" fill="#fff"/>
  <path id="Path-6" data-name="Path" d="M0,0H2V2H0Z" transform="translate(4 2)" fill="#1a1a1a"/>
  <path id="Path-7" data-name="Path" d="M0,0H2V2H0Z" transform="translate(24 2)" fill="#1a1a1a"/>
  <path id="Path-8" data-name="Path" d="M0,0H2V2H0Z" transform="translate(6 4)" fill="#1a1a1a"/>
  <path id="Path-9" data-name="Path" d="M0,0H2V2H0Z" transform="translate(22 4)" fill="#1a1a1a"/>
  <path id="Path-10" data-name="Path" d="M0,0H14V2H10V4H8V2H6V4H4V2H0Z" transform="translate(8 6)" fill="#1a1a1a"/>
  <path id="Path-11" data-name="Path" d="M0,0H2V2H0Z" transform="translate(6 8)" fill="#1a1a1a"/>
  <path id="Path-12" data-name="Path" d="M0,0H2V2H0Z" transform="translate(14 8)" fill="#fff"/>
  <path id="Path-13" data-name="Path" d="M0,0H2V2H0Z" transform="translate(22 8)" fill="#1a1a1a"/>
  <path id="Path-14" data-name="Path" d="M0,0H2V2H0Z" transform="translate(14 10)" fill="#1a1a1a"/>
  <path id="Path-15" data-name="Path" d="M0,0H2V4H0Z" transform="translate(0 12)" fill="#fff"/>
  <path id="Path-16" data-name="Path" d="M0,0H2V2H4V4H0Z" transform="translate(2 12)" fill="#1a1a1a"/>
  <path id="Path-17" data-name="Path" d="M0,0H6V4H2V2H0Z" transform="translate(6 12)" fill="#1a1a1a"/>
  <path id="Path-18" data-name="Path" d="M0,0H6V2H4V4H0Z" transform="translate(18 12)" fill="#1a1a1a"/>
  <path id="Path-19" data-name="Path" d="M2,0H4V4H0V2H2Z" transform="translate(24 12)" fill="#1a1a1a"/>
  <path id="Path-20" data-name="Path" d="M4,0H6V2h4V4h2V6H8V8h2v2h2v2h2V10h2V8h2V6H14V4h2V2h4V0h2V2h4V4H20V6h6v4H24V8H20v2h2v2H16v2H10V12H4V10H6V8H2v2H0V6H6V4H0V2H4Z" transform="translate(2 14)" fill="#fff"/>
  <path id="Path-21" data-name="Path" d="M0,0H2V2H8V4H2V8H0Z" transform="translate(0 16)" fill="#1a1a1a"/>
  <path id="Path-22" data-name="Path" d="M0,0H2V2H0Z" transform="translate(12 16)" fill="#1a1a1a"/>
  <path id="Path-23" data-name="Path" d="M0,0H2V2H0Z" transform="translate(16 16)" fill="#1a1a1a"/>
  <path id="Path-24" data-name="Path" d="M6,0H8V8H6V4H0V2H6Z" transform="translate(22 16)" fill="#1a1a1a"/>
  <path id="Path-25" data-name="Path" d="M4,0H6V2h4V4H8V6H6V4H4V6H2V4H0V2H4Z" transform="translate(10 18)" fill="#1a1a1a"/>
  <path id="Path-26" data-name="Path" d="M2,0H6V2H4V4H0V2H2Z" transform="translate(2 22)" fill="#1a1a1a"/>
  <path id="Path-27" data-name="Path" d="M0,0H2V2H0Z" transform="translate(14 22)" fill="#fff"/>
  <path id="Path-28" data-name="Path" d="M0,0H4V2H6V4H2V2H0Z" transform="translate(22 22)" fill="#1a1a1a"/>
  <path id="Path-29" data-name="Path" d="M0,0H2V2H0Z" transform="translate(14 24)" fill="#1a1a1a"/>
  <path id="Path-30" data-name="Path" d="M0,0H6V2H0Z" transform="translate(6 26)" fill="#1a1a1a"/>
  <path id="Path-31" data-name="Path" d="M0,0H6V2H0Z" transform="translate(18 26)" fill="#1a1a1a"/>
  <path id="Path-32" data-name="Path" d="M0,0H6V2H0Z" transform="translate(12 28)" fill="#1a1a1a"/>
</svg>
