<svg id="Layer_1" data-name="Layer 1" xmlns="http://www.w3.org/2000/svg" viewBox="0 0 468.16 512"><defs><style>.cls-1{fill:#fff;}</style></defs><circle cx="71.08" cy="122.07" r="11.43"/><path d="M199.71,167A10.51,10.51,0,0,0,185.37,163a6.74,6.74,0,0,1-4.78.74,6.86,6.86,0,0,1-5.1-4.57h0a10.5,10.5,0,0,0-20,0,6.87,6.87,0,0,1-5.11,4.57,6.76,6.76,0,0,1-4.78-.74,10.52,10.52,0,0,0-10.39,18.29,27.78,27.78,0,0,0,30.26-1.8,27.81,27.81,0,0,0,30.28,1.8A10.53,10.53,0,0,0,199.71,167Z" transform="translate(-21.92)"/><circle cx="216.07" cy="122.07" r="11.43"/><path class="cls-1" d="M423.79,344.93a12,12,0,0,0-2.25-.36,12.25,12.25,0,0,0-3.49.32A11.7,11.7,0,0,0,409.49,359a76.82,76.82,0,0,1-8.41,57.6,11.69,11.69,0,0,0,20.15,11.84q1.88-3.21,3.51-6.51t3-6.68c.61-1.5,1.18-3,1.72-4.54a99.61,99.61,0,0,0,4.94-21.11c.1-.8.18-1.6.26-2.4.16-1.6.27-3.2.35-4.81q.23-4.81,0-9.66c-.08-1.61-.2-3.23-.36-4.84q-.35-3.63-1-7.26c-.27-1.61-.59-3.21-.94-4.82-.18-.8-.37-1.6-.56-2.4a11.78,11.78,0,0,0-1.6-3.63,11.24,11.24,0,0,0-1.11-1.44c-.25-.28-.52-.54-.8-.8a11.54,11.54,0,0,0-1.42-1.08A11.83,11.83,0,0,0,423.79,344.93Z" transform="translate(-21.92)"/><path class="cls-1" d="M490,374c0-.22,0-.46,0-.69V145.85a44.35,44.35,0,1,0-88.7,0v88.43l-101.26-64a152.73,152.73,0,0,0,8.95-51V24.27A24.27,24.27,0,0,0,268.25,6.51a4.11,4.11,0,0,0-.3.29L226.54,48.21a125,125,0,0,0-122.1,0L63,6.8l-.3-.29A24.27,24.27,0,0,0,21.92,24.27v95.09c0,38.13,15.2,76.61,41.7,105.58a150.45,150.45,0,0,0,34.86,28.4,211.09,211.09,0,0,0-.62,23,215,215,0,0,0,26.82,98.3V441h-.44a35.56,35.56,0,0,0-35.53,35.51v13.08A22.48,22.48,0,0,0,111.15,512h60.49a35.13,35.13,0,0,0,33.05-23.37h12.22v.25A23.15,23.15,0,0,0,240,512H373.66a109,109,0,0,0,87.7-44.53,0,0,0,0,0,0,0,105.52,105.52,0,0,0,6.16-9.39,1.19,1.19,0,0,0,.09-.15l.24-.39A154.52,154.52,0,0,0,490,374ZM80.85,209.17q-3.63-4-6.91-8.23l8.44-.71a11.69,11.69,0,0,0-2-23.3l-20.6,1.75a134.45,134.45,0,0,1-5.67-12.77l25.73,3.42a11.51,11.51,0,0,0,1.55.09,11.69,11.69,0,0,0,1.52-23.27l-35.66-4.73a126.05,126.05,0,0,1-2-22.07V24.27a.91.91,0,0,1,.9-.9.84.84,0,0,1,.54.18l47.69,47.7a11.69,11.69,0,0,0,14.76,1.45,101.56,101.56,0,0,1,112.62,0,11.69,11.69,0,0,0,14.76-1.45l47.69-47.7a.83.83,0,0,1,.54-.18.91.91,0,0,1,.9.9v95.09a125,125,0,0,1-2,22.06L248,146.15a11.69,11.69,0,0,0,1.52,23.27c.52,0,1,0,1.56-.09l25.73-3.42a133.06,133.06,0,0,1-5.67,12.77l-20.61-1.75a11.69,11.69,0,0,0-2,23.3l8.46.71q-3.29,4.25-6.91,8.23c-23.18,25.32-53.24,39.26-84.64,39.26S104,234.49,80.85,209.17Zm367,236.24-5.54,8.48a85.59,85.59,0,0,1-68.67,34.74H240.28V475a13.64,13.64,0,0,1,13.62-13.63h34.58a11.68,11.68,0,0,0,10.26-17.28,85.3,85.3,0,0,1,74.92-126,11.69,11.69,0,1,0,0-23.37,108.68,108.68,0,0,0-103,143.3H253.9a37.05,37.05,0,0,0-35.68,27.25H206.69V390.54a11.69,11.69,0,1,0-23.37,0v86.4a11.71,11.71,0,0,1-11.69,11.69H112.08V476.47a12.17,12.17,0,0,1,12.15-12.14h12.13a11.7,11.7,0,0,0,11.69-11.69V374.69a11.68,11.68,0,0,0-1.27-8.46,191.27,191.27,0,0,1-25.55-90.57c-.11-3.88-.08-7.76,0-11.61a130.18,130.18,0,0,0,44.21,7.76c38,0,74.22-16.65,101.87-46.87a159.81,159.81,0,0,0,23.23-33l110.8,70C465.05,302.11,485.43,382.68,447.87,445.41Zm18.83-150h0a163.72,163.72,0,0,0-42-45.76V145.85a21,21,0,0,1,42,0V295.41Z" transform="translate(-21.92)"/><circle cx="71.08" cy="122.07" r="11.43"/><path d="M199.71,167A10.51,10.51,0,0,0,185.37,163a6.74,6.74,0,0,1-4.78.74,6.86,6.86,0,0,1-5.1-4.57h0a10.5,10.5,0,0,0-20,0,6.85,6.85,0,0,1-5.11,4.57,6.76,6.76,0,0,1-4.78-.74,10.52,10.52,0,0,0-10.39,18.29,27.78,27.78,0,0,0,30.26-1.8,27.81,27.81,0,0,0,30.28,1.8A10.53,10.53,0,0,0,199.71,167Z" transform="translate(-21.92)"/><circle cx="216.07" cy="122.07" r="11.43"/><g id="SVGCleanerId_0" data-name="SVGCleanerId 0"><path d="M432.19,353.45a11.69,11.69,0,1,0-22.7,5.58,76.83,76.83,0,0,1-8.41,57.61,11.69,11.69,0,0,0,20.15,11.84A100.08,100.08,0,0,0,432.19,353.45Z" transform="translate(-21.92)"/></g><circle class="cls-1" cx="71.08" cy="122.07" r="11.43"/><circle class="cls-1" cx="216.07" cy="122.07" r="11.43"/><path class="cls-1" d="M199.71,167A10.51,10.51,0,0,0,185.37,163a6.74,6.74,0,0,1-4.78.74,6.86,6.86,0,0,1-5.1-4.57h0a10.5,10.5,0,0,0-20,0,6.85,6.85,0,0,1-5.11,4.57,6.76,6.76,0,0,1-4.78-.74,10.52,10.52,0,0,0-10.39,18.29,27.78,27.78,0,0,0,30.26-1.8,27.81,27.81,0,0,0,30.28,1.8A10.53,10.53,0,0,0,199.71,167Z" transform="translate(-21.92)"/><path class="cls-1" d="M432.19,353.45a11.69,11.69,0,1,0-22.7,5.58,76.83,76.83,0,0,1-8.41,57.61,11.69,11.69,0,0,0,20.15,11.84A100.08,100.08,0,0,0,432.19,353.45Z" transform="translate(-21.92)"/></svg>